<svg width="35" height="20" viewBox="0 0 35 20" fill="none" xmlns="http://www.w3.org/2000/svg">
<path fill-rule="evenodd" clip-rule="evenodd" d="M9.33333 2.5H25.6667C29.5312 2.5 32.6667 5.85938 32.6667 10C32.6667 14.1406 29.5312 17.5 25.6667 17.5H9.33333C5.46875 17.5 2.33333 14.1406 2.33333 10C2.33333 5.85938 5.46875 2.5 9.33333 2.5ZM0 10C0 4.47754 4.17904 0 9.33333 0H25.6667C30.821 0 35 4.47754 35 10C35 15.5225 30.821 20 25.6667 20H9.33333C4.17904 20 0 15.5225 0 10ZM25.6667 15C28.2461 15 30.3333 12.7637 30.3333 10C30.3333 7.23633 28.2461 5 25.6667 5C23.0872 5 21 7.23633 21 10C21 12.7637 23.0872 15 25.6667 15Z" fill="white"/>
</svg>
