<svg width="24" height="25" viewBox="0 0 24 25" fill="none" xmlns="http://www.w3.org/2000/svg">
<g clip-path="url(#clip0_2240_3394)">
<path d="M4.73307 2.73434C5.46633 2.47796 6.25877 2.43084 7.01828 2.59845C7.77778 2.76607 8.47314 3.14153 9.02352 3.68119C9.57389 4.22085 9.95667 4.90255 10.1273 5.64701C10.298 6.39148 10.2496 7.16813 9.98768 7.88668L21.4838 19.1541C22.1723 19.8288 22.172 20.9229 21.4832 21.5973Lnan nanL21.4832 21.5973C20.795 22.2713 19.6797 22.2711 18.9917 21.5969L7.49432 10.3304C6.76107 10.5868 5.96862 10.6339 5.20911 10.4663C4.44961 10.2987 3.75425 9.92323 3.20388 9.38356C2.6535 8.8439 2.27072 8.16221 2.10005 7.41775C1.92937 6.67328 1.9778 5.89663 2.23972 5.17808L4.86702 7.75425C5.02894 7.92195 5.22353 8.05614 5.43927 8.14888C5.65501 8.24161 5.88754 8.29102 6.12309 8.29418C6.35865 8.29733 6.59246 8.25418 6.81071 8.16725C7.02896 8.08033 7.22721 7.9514 7.39376 7.7881C7.5603 7.6248 7.69174 7.43043 7.78033 7.21648C7.86892 7.00253 7.91284 6.77335 7.90951 6.54248C7.90618 6.31162 7.85566 6.08374 7.76094 5.87234C7.66621 5.66093 7.52921 5.47029 7.35802 5.31166L4.73307 2.73204V2.73434ZM16.7169 5.86745C16.8422 5.25618 17.2347 4.72952 17.7908 4.42671L19.6262 3.42717C20.2341 3.09615 20.9922 3.2002 21.4839 3.68212Lnan nanL21.4839 3.68212C21.9756 4.16405 22.0818 4.90707 21.744 5.50283L20.7245 7.30129C20.4153 7.84655 19.8776 8.23134 19.2535 8.3538L18.9818 8.40714C18.4458 8.51232 17.9536 8.77057 17.5671 9.14939L15.6688 11.0099L14.0062 9.38263L15.9048 7.52096C16.2911 7.14215 16.5546 6.6599 16.6622 6.13479L16.7169 5.86745ZM8.60587 13.8613L11.0969 16.305L5.28062 22.0055C4.95937 22.3145 4.52968 22.4913 4.07968 22.4997C3.62967 22.5081 3.19344 22.3474 2.86043 22.0506C2.52743 21.7539 2.32288 21.3435 2.28874 20.9036C2.2546 20.4637 2.39345 20.0277 2.67682 19.685L2.79079 19.5618L8.60587 13.8613Z" fill="white"/>
</g>
<defs>
<clipPath id="clip0_2240_3394">
<rect width="24" height="24" fill="white" transform="translate(0 0.5)"/>
</clipPath>
</defs>
</svg>
