<svg width="36" height="36" viewBox="0 0 36 36" fill="none" xmlns="http://www.w3.org/2000/svg">
<rect width="36" height="36" rx="7" fill="#5D75EF"/>
<g clip-path="url(#clip0_1972_15758)">
<path fill-rule="evenodd" clip-rule="evenodd" d="M23.5965 20.5197C23.5965 20.9902 23.5417 21.4549 23.4357 21.9044L21.5724 19.9662C22.047 19.6826 22.5927 19.2537 23.2239 18.605C23.4251 19.2042 23.5965 19.8484 23.5965 20.5197ZM17.262 9.66699C21.2529 12.4345 23.4627 15.202 20.7125 19.0719L16.0938 14.2677C16.8546 13.2009 17.4608 11.7346 17.262 9.66699ZM21.7709 24.8179L13.8752 16.6052C13.2218 17.3516 12.7646 18.2644 12.5524 19.2548C12.3087 20.3919 12.3991 21.579 12.8118 22.662C13.2245 23.745 13.9404 24.6741 14.8668 25.3288C15.7932 25.9835 16.8873 26.3336 18.0073 26.3337C19.4025 26.3337 20.744 25.791 21.7709 24.8179ZM12.6172 11.7855L24.4533 24.279C24.5225 24.3517 24.5772 24.4379 24.6142 24.5326C24.6513 24.6274 24.67 24.7288 24.6693 24.8311C24.6685 24.9333 24.6484 25.0344 24.61 25.1286C24.5716 25.2228 24.5157 25.3081 24.4456 25.3798C24.3758 25.4519 24.293 25.5089 24.2019 25.5476C24.1108 25.5863 24.0132 25.6058 23.9149 25.605C23.8165 25.6043 23.7192 25.5833 23.6287 25.5432C23.5382 25.5032 23.4561 25.4449 23.3874 25.3717L11.5512 12.8782C11.4823 12.8054 11.4278 12.7192 11.3908 12.6245C11.3539 12.5297 11.3352 12.4284 11.336 12.3262C11.3367 12.224 11.3567 12.1229 11.395 12.0287C11.4333 11.9346 11.489 11.8492 11.559 11.7775C11.629 11.7057 11.7119 11.649 11.8029 11.6106C11.894 11.5722 11.9914 11.5528 12.0897 11.5535C12.188 11.5543 12.2851 11.5751 12.3756 11.6149C12.4661 11.6547 12.5482 11.7127 12.6172 11.7855Z" fill="white"/>
</g>
<defs>
<clipPath id="clip0_1972_15758">
<rect width="20" height="20" fill="white" transform="translate(8 8)"/>
</clipPath>
</defs>
</svg>
