<svg width="36" height="36" viewBox="0 0 36 36" fill="none" xmlns="http://www.w3.org/2000/svg">
<rect width="36" height="36" rx="7" fill="#5D75EF"/>
<path fill-rule="evenodd" clip-rule="evenodd" d="M17.9974 26.3337C22.5998 26.3337 26.3307 22.6027 26.3307 18.0003C26.3307 13.398 22.5998 9.66699 17.9974 9.66699C13.395 9.66699 9.66406 13.398 9.66406 18.0003C9.66406 22.6027 13.395 26.3337 17.9974 26.3337ZM25.4763 18.5623C25.4996 18.2525 25.2456 18.0003 24.9349 18.0003C24.6242 18.0003 24.375 18.2526 24.3476 18.5621C24.2906 19.2067 24.1356 19.84 23.8871 20.4399C23.5668 21.2134 23.0972 21.9162 22.5052 22.5081C21.9132 23.1001 21.2105 23.5697 20.437 23.8901C19.6636 24.2104 18.8346 24.3753 17.9974 24.3753C17.1602 24.3753 16.3312 24.2104 15.5578 23.8901C14.7843 23.5697 14.0816 23.1001 13.4896 22.5081C12.8976 21.9162 12.428 21.2134 12.1077 20.4399C11.8592 19.84 11.7042 19.2067 11.6472 18.5621C11.6198 18.2526 11.3706 18.0003 11.0599 18.0003C10.7492 18.0003 10.4952 18.2525 10.5185 18.5623C10.578 19.3548 10.7633 20.134 11.0683 20.8705C11.4452 21.7804 11.9977 22.6072 12.6941 23.3036C13.3905 24.0001 14.2173 24.5525 15.1273 24.9294C16.0372 25.3063 17.0125 25.5003 17.9974 25.5003C18.9823 25.5003 19.9576 25.3063 20.8675 24.9294C21.7775 24.5525 22.6043 24.0001 23.3007 23.3036C23.9971 22.6072 24.5496 21.7804 24.9265 20.8705C25.2315 20.134 25.4168 19.3548 25.4763 18.5623ZM15.4974 13.8337C15.4974 12.9132 16.2436 12.167 17.1641 12.167H18.8307C19.7512 12.167 20.4974 12.9132 20.4974 13.8337C20.4974 14.7541 19.7512 15.5003 18.8307 15.5003H17.1641C16.2436 15.5003 15.4974 14.7541 15.4974 13.8337ZM17.1641 13.0003C16.7038 13.0003 16.3307 13.3734 16.3307 13.8337C16.3307 14.2939 16.7038 14.667 17.1641 14.667H18.8307C19.291 14.667 19.6641 14.2939 19.6641 13.8337C19.6641 13.3734 19.291 13.0003 18.8307 13.0003H17.1641Z" fill="white"/>
</svg>
