<svg width="132" height="14" viewBox="0 0 132 14" fill="none" xmlns="http://www.w3.org/2000/svg">
<path fill-rule="evenodd" clip-rule="evenodd" d="M7.5 1.75H19.75C22.6484 1.75 25 4.10156 25 7C25 9.89844 22.6484 12.25 19.75 12.25H7.5C4.60156 12.25 2.25 9.89844 2.25 7C2.25 4.10156 4.60156 1.75 7.5 1.75ZM0.5 7C0.5 3.13428 3.63428 0 7.5 0H19.75C23.6157 0 26.75 3.13428 26.75 7C26.75 10.8657 23.6157 14 19.75 14H7.5C3.63428 14 0.5 10.8657 0.5 7ZM19.75 10.5C21.6846 10.5 23.25 8.93457 23.25 7C23.25 5.06543 21.6846 3.5 19.75 3.5C17.8154 3.5 16.25 5.06543 16.25 7C16.25 8.93457 17.8154 10.5 19.75 10.5Z" fill="white"/>
<path d="M36.5706 14C35.7257 14 34.8871 13.9168 34.0549 13.7503C33.2227 13.5967 32.5377 13.3791 32 13.0974V10.0439C32.6914 10.4024 33.4083 10.6712 34.1509 10.8505C34.9063 11.0297 35.6232 11.1193 36.3018 11.1193C36.9291 11.1193 37.4028 11.0233 37.7229 10.8313C38.043 10.6392 38.203 10.364 38.203 10.0055C38.203 9.73663 38.1134 9.50617 37.9342 9.31413C37.7677 9.10928 37.5181 8.92364 37.1852 8.7572C36.8523 8.59076 36.3338 8.36031 35.6296 8.06585C34.3877 7.54093 33.4851 6.95839 32.9218 6.31824C32.3585 5.6781 32.0768 4.89072 32.0768 3.95611C32.0768 3.18793 32.2881 2.50297 32.7106 1.90124C33.1459 1.2995 33.7476 0.83219 34.5158 0.499315C35.284 0.166438 36.1674 0 37.166 0C37.9854 0 38.7151 0.0640146 39.3553 0.192044C39.9954 0.320074 40.61 0.524921 41.1989 0.806585V3.78327C40.0722 3.19433 38.9392 2.89986 37.7997 2.89986C37.1852 2.89986 36.6923 3.00229 36.321 3.20713C35.9625 3.39918 35.7833 3.68084 35.7833 4.05213C35.7833 4.42341 35.9689 4.72428 36.3402 4.95473C36.7115 5.18519 37.3964 5.49886 38.3951 5.89575C39.3041 6.26703 40.0082 6.63192 40.5075 6.9904C41.0197 7.34888 41.3909 7.76498 41.6214 8.23868C41.8519 8.71239 41.9671 9.31413 41.9671 10.0439C41.9671 11.2858 41.5126 12.2588 40.6036 12.963C39.7074 13.6543 38.3631 14 36.5706 14Z" fill="white"/>
<path d="M43.3178 4.49383H46.4482V5.49246C46.8322 5.08276 47.2739 4.76909 47.7733 4.55144C48.2726 4.32099 48.8039 4.20576 49.3672 4.20576C50.0586 4.20576 50.6091 4.30819 51.0188 4.51303C51.4413 4.71788 51.7806 5.02515 52.0366 5.43484C52.4207 5.05075 52.888 4.74989 53.4385 4.53224C53.9891 4.31459 54.546 4.20576 55.1093 4.20576C56.3256 4.20576 57.1898 4.51943 57.7019 5.14678C58.214 5.76132 58.4701 6.65112 58.4701 7.81619V13.7119H55.2438V8.2963C55.2438 7.78418 55.1477 7.4129 54.9557 7.18244C54.7637 6.95199 54.4436 6.83676 53.9955 6.83676C53.4193 6.83676 52.952 7.04161 52.5936 7.4513C52.6064 7.66895 52.6128 8.00183 52.6128 8.44993V13.7119H49.3864V8.16187C49.3864 7.68816 49.3032 7.34888 49.1368 7.14403C48.9703 6.93919 48.6759 6.83676 48.2534 6.83676C47.6004 6.83676 47.0371 7.20165 46.5634 7.93141V13.7119H43.3178V4.49383Z" fill="white"/>
<path d="M63.2976 14C62.1453 14 61.2107 13.7247 60.4938 13.1742C59.7896 12.6109 59.4375 11.8299 59.4375 10.8313C59.4375 9.79424 59.7768 9.00046 60.4554 8.44993C61.1467 7.8866 62.1325 7.60494 63.4128 7.60494C63.9121 7.60494 64.4115 7.66255 64.9108 7.77778C65.4101 7.8802 65.839 8.02103 66.1975 8.20028V8.00823C66.1975 7.02241 65.3909 6.52949 63.7777 6.52949C62.6511 6.52949 61.6204 6.74714 60.6858 7.18244V4.85871C61.0955 4.66667 61.6332 4.51303 62.299 4.39781C62.9647 4.26978 63.6561 4.20576 64.373 4.20576C66.0886 4.20576 67.3817 4.55144 68.2523 5.2428C69.1357 5.92135 69.5774 6.87517 69.5774 8.10425V13.7119H66.4087V12.9246C66.063 13.2574 65.6277 13.5199 65.1028 13.7119C64.5779 13.904 63.9762 14 63.2976 14ZM64.2962 11.9259C64.6931 11.9259 65.0644 11.8491 65.4101 11.6955C65.7558 11.529 66.0182 11.3178 66.1975 11.0617V10.2551C65.6469 9.88386 65.0196 9.69822 64.3154 9.69822C63.8673 9.69822 63.5217 9.79424 63.2784 9.98628C63.0351 10.1783 62.9135 10.46 62.9135 10.8313C62.9135 11.177 63.0287 11.4458 63.2592 11.6379C63.5024 11.8299 63.8481 11.9259 64.2962 11.9259Z" fill="white"/>
<path d="M71.2055 4.49383H74.4702V5.64609C74.8287 5.2364 75.3344 4.92273 75.9874 4.70508C76.6403 4.47462 77.275 4.3594 78.0688 4.3594V6.95199C77.2238 6.95199 76.5635 7.07362 75.9105 7.31687C75.2704 7.56013 74.8287 7.92501 74.5854 8.41152V13.7119H71.2055V4.49383Z" fill="white"/>
<path d="M83.3543 14C82.2149 14 81.3507 13.6863 80.7617 13.059C80.1856 12.4188 79.8975 11.5482 79.8975 10.4472V6.83676H78.5916V4.49383H79.8975V1.7284H83.2775V4.49383H85.39V6.83676H83.2775V9.98628C83.2775 10.4856 83.3671 10.8441 83.5464 11.0617C83.7384 11.2794 84.0713 11.3882 84.545 11.3882C84.9675 11.3882 85.39 11.273 85.8125 11.0425V13.5583C85.4796 13.7119 85.1211 13.8208 84.7371 13.8848C84.3658 13.9616 83.9049 14 83.3543 14Z" fill="white"/>
<path d="M96.555 13.9983C94.865 13.9983 93.5271 13.5758 92.5412 12.7309C91.5554 11.8859 91.0625 10.6824 91.0625 9.12043C91.0625 7.55847 91.5554 6.34859 92.5412 5.4908C93.5399 4.633 94.8842 4.2041 96.5742 4.2041C97.3295 4.2041 98.0337 4.28092 98.6866 4.43455C99.3524 4.57539 99.9029 4.78023 100.338 5.04909V7.6801C99.5572 7.11677 98.5266 6.8351 97.2463 6.8351C96.4269 6.8351 95.7676 7.02715 95.2683 7.41124C94.7817 7.78252 94.5385 8.35225 94.5385 9.12043C94.5385 9.9014 94.7817 10.4775 95.2683 10.8488C95.7548 11.2073 96.4077 11.3865 97.2271 11.3865C98.469 11.3865 99.5444 11.0921 100.453 10.5031V13.1149C99.4804 13.7039 98.1809 13.9983 96.555 13.9983Z" fill="white"/>
<path d="M105.181 13.9983C104.029 13.9983 103.094 13.7231 102.377 13.1726C101.673 12.6092 101.321 11.8282 101.321 10.8296C101.321 9.79258 101.66 8.9988 102.339 8.44827C103.03 7.88494 104.016 7.60328 105.296 7.60328C105.796 7.60328 106.295 7.66089 106.794 7.77612C107.294 7.87854 107.723 8.01937 108.081 8.19862V8.00657C108.081 7.02075 107.274 6.52783 105.661 6.52783C104.535 6.52783 103.504 6.74548 102.569 7.18078V4.85705C102.979 4.66501 103.517 4.51137 104.183 4.39615C104.848 4.26812 105.54 4.2041 106.257 4.2041C107.972 4.2041 109.265 4.54978 110.136 5.24114C111.019 5.91969 111.461 6.87351 111.461 8.10259V13.7103H108.292V12.9229C107.947 13.2558 107.511 13.5182 106.986 13.7103C106.461 13.9023 105.86 13.9983 105.181 13.9983ZM106.18 11.9243C106.577 11.9243 106.948 11.8474 107.294 11.6938C107.639 11.5274 107.902 11.3161 108.081 11.0601V10.2535C107.531 9.8822 106.903 9.69656 106.199 9.69656C105.751 9.69656 105.405 9.79258 105.162 9.98462C104.919 10.1767 104.797 10.4583 104.797 10.8296C104.797 11.1753 104.912 11.4442 105.143 11.6362C105.386 11.8282 105.732 11.9243 106.18 11.9243Z" fill="white"/>
<path d="M113.089 4.49217H116.354V5.64443C116.712 5.23474 117.218 4.92107 117.871 4.70342C118.524 4.47296 119.247 4.35774 120.041 4.35774V6.95033C119.196 6.95033 118.447 7.07196 117.794 7.31521C117.154 7.55847 116.712 7.92335 116.469 8.40986V13.7103H113.089V4.49217Z" fill="white"/>
<path d="M126.419 13.9983C124.614 13.9983 123.193 13.5758 122.156 12.7309C121.131 11.8859 120.619 10.6888 120.619 9.13963C120.619 7.61608 121.074 6.41261 121.983 5.5292C122.905 4.6458 124.23 4.2041 125.958 4.2041C127.059 4.2041 128 4.41535 128.781 4.83785C129.575 5.24754 130.17 5.81727 130.567 6.54704C130.977 7.264 131.182 8.07699 131.182 8.986V10.2343H123.826C123.954 10.7464 124.274 11.1177 124.787 11.3481C125.299 11.5786 125.996 11.6938 126.88 11.6938C127.482 11.6938 128.096 11.6426 128.724 11.5402C129.364 11.4378 129.914 11.2969 130.375 11.1177V13.3454C129.901 13.5374 129.306 13.6911 128.589 13.8063C127.885 13.9343 127.162 13.9983 126.419 13.9983ZM127.994 8.1218C127.943 7.62248 127.738 7.23199 127.379 6.95033C127.021 6.66866 126.528 6.52783 125.9 6.52783C125.286 6.52783 124.799 6.67507 124.441 6.96953C124.082 7.2512 123.878 7.63529 123.826 8.1218H127.994Z" fill="white"/>
</svg>
